<svg width="21" height="19" viewBox="0 0 21 19" fill="none" xmlns="http://www.w3.org/2000/svg">
<path d="M5.6545 13.6555H10.5983C10.8116 13.6555 10.9902 13.5832 11.134 13.4385C11.2777 13.294 11.3495 13.1148 11.3495 12.901C11.3495 12.6873 11.2777 12.5097 11.134 12.368C10.9902 12.2263 10.8116 12.1555 10.5983 12.1555H5.6545C5.44117 12.1555 5.26267 12.2278 5.119 12.3725C4.97517 12.517 4.90325 12.6962 4.90325 12.91C4.90325 13.1237 4.97517 13.3013 5.119 13.443C5.26267 13.5847 5.44117 13.6555 5.6545 13.6555ZM15.0413 4.6555C14.8276 4.6555 14.6499 4.72733 14.5083 4.871C14.3666 5.01483 14.2958 5.193 14.2958 5.4055V12.9055C14.2958 13.118 14.368 13.2961 14.5125 13.4397C14.6572 13.5836 14.8363 13.6555 15.05 13.6555C15.2638 13.6555 15.4416 13.5836 15.5833 13.4397C15.7249 13.2961 15.7958 13.118 15.7958 12.9055V5.4055C15.7958 5.193 15.7234 5.01483 15.5788 4.871C15.4343 4.72733 15.2551 4.6555 15.0413 4.6555ZM5.6545 9.9055H10.5983C10.8116 9.9055 10.9902 9.83317 11.134 9.6885C11.2777 9.544 11.3495 9.36483 11.3495 9.151C11.3495 8.93733 11.2777 8.75967 11.134 8.618C10.9902 8.47633 10.8116 8.4055 10.5983 8.4055H5.6545C5.44117 8.4055 5.26267 8.47783 5.119 8.6225C4.97517 8.767 4.90325 8.94617 4.90325 9.16C4.90325 9.37367 4.97517 9.55133 5.119 9.693C5.26267 9.83467 5.44117 9.9055 5.6545 9.9055ZM5.6545 6.1555H10.5983C10.8116 6.1555 10.9902 6.08317 11.134 5.9385C11.2777 5.794 11.3495 5.61483 11.3495 5.401C11.3495 5.18733 11.2777 5.00967 11.134 4.868C10.9902 4.72633 10.8116 4.6555 10.5983 4.6555H5.6545C5.44117 4.6555 5.26267 4.72783 5.119 4.8725C4.97517 5.017 4.90325 5.19617 4.90325 5.41C4.90325 5.62367 4.97517 5.80133 5.119 5.943C5.26267 6.08467 5.44117 6.1555 5.6545 6.1555ZM1.70325 18.305C1.24325 18.305 0.844417 18.1361 0.50675 17.7983C0.168917 17.4606 0 17.0617 0 16.6017V1.70925C0 1.24758 0.168917 0.847332 0.50675 0.508499C0.844417 0.169499 1.24325 0 1.70325 0H18.9958C19.4574 0 19.8577 0.169499 20.1965 0.508499C20.5355 0.847332 20.705 1.24758 20.705 1.70925V16.6017C20.705 17.0617 20.5355 17.4606 20.1965 17.7983C19.8577 18.1361 19.4574 18.305 18.9958 18.305H1.70325ZM1.70325 16.6017H18.9958V1.70925H1.70325V16.6017Z" fill="#304B52"/>
</svg>
