<svg width="19" height="18" viewBox="0 0 19 18" fill="none" xmlns="http://www.w3.org/2000/svg">
<path d="M5.27748 14.8017L9.11873 12.5055L12.96 14.8267L11.928 10.4782L15.3062 7.538L10.852 7.15L9.11873 3.04575L7.38548 7.131L2.93123 7.513L6.30948 10.4472L5.27748 14.8017ZM9.11873 14.4887L4.45673 17.3005C4.29956 17.3958 4.13598 17.4383 3.96598 17.428C3.79614 17.4177 3.64489 17.3648 3.51223 17.2695C3.37956 17.1743 3.28106 17.0511 3.21673 16.8997C3.15256 16.7486 3.13906 16.5777 3.17623 16.387L4.40723 11.075L0.295475 7.488C0.146142 7.3595 0.0549753 7.21442 0.0219753 7.05275C-0.0110247 6.89125 -0.006858 6.73383 0.0344753 6.5805C0.0718087 6.42717 0.157809 6.29775 0.292475 6.19225C0.426975 6.08658 0.589559 6.02542 0.780226 6.00875L6.21698 5.53375L8.32298 0.51575C8.39764 0.341917 8.51064 0.212499 8.66198 0.127499C8.81314 0.0424994 8.96539 0 9.11873 0C9.27206 0 9.42431 0.0424994 9.57548 0.127499C9.72681 0.212499 9.83981 0.341917 9.91448 0.51575L12.0205 5.53375L17.4632 6.00875C17.6499 6.02542 17.8105 6.08658 17.945 6.19225C18.0796 6.29775 18.1656 6.42717 18.203 6.5805C18.2443 6.73383 18.2485 6.89125 18.2155 7.05275C18.1825 7.21442 18.0913 7.3595 17.942 7.488L13.8302 11.075L15.0612 16.387C15.0984 16.5777 15.0849 16.7486 15.0207 16.8997C14.9564 17.0511 14.8579 17.1743 14.7252 17.2695C14.5926 17.3648 14.4413 17.4177 14.2715 17.428C14.1015 17.4383 13.9379 17.3958 13.7807 17.3005L9.11873 14.4887Z" fill="#304B52"/>
</svg>
