<svg width="19" height="19" viewBox="0 0 19 19" fill="none" xmlns="http://www.w3.org/2000/svg">
<path d="M0.82775 18.305C0.59575 18.305 0.399834 18.2246 0.24 18.0637C0.0800002 17.9028 0 17.7056 0 17.4722C0 17.2389 0.0800002 17.0425 0.24 16.883C0.399834 16.7233 0.59575 16.6435 0.82775 16.6435H17.4713C17.7049 16.6435 17.9023 16.7243 18.0632 16.886C18.2244 17.0477 18.305 17.2457 18.305 17.4802C18.305 17.7149 18.2244 17.911 18.0632 18.0685C17.9023 18.2262 17.7049 18.305 17.4713 18.305H0.82775ZM0.82775 14.144C0.59575 14.144 0.399834 14.0636 0.24 13.9028C0.0800002 13.7419 0 13.5448 0 13.3115C0 13.0782 0.0800002 12.8817 0.24 12.722C0.399834 12.5625 0.59575 12.4827 0.82775 12.4827H17.4713C17.7049 12.4827 17.9023 12.5636 18.0632 12.7252C18.2244 12.8869 18.305 13.085 18.305 13.3195C18.305 13.554 18.2244 13.7501 18.0632 13.9077C17.9023 14.0652 17.7049 14.144 17.4713 14.144H0.82775ZM0.82775 9.98325C0.59575 9.98325 0.399834 9.90283 0.24 9.742C0.0800002 9.581 0 9.38383 0 9.1505C0 8.91717 0.0800002 8.72075 0.24 8.56125C0.399834 8.40158 0.59575 8.32175 0.82775 8.32175H17.4713C17.7049 8.32175 17.9023 8.40258 18.0632 8.56425C18.2244 8.72592 18.305 8.92408 18.305 9.15875C18.305 9.39325 18.2244 9.58925 18.0632 9.74675C17.9023 9.90442 17.7049 9.98325 17.4713 9.98325H0.82775ZM0.82775 5.82225C0.59575 5.82225 0.399834 5.74183 0.24 5.581C0.0800002 5.42017 0 5.22308 0 4.98975C0 4.75642 0.0800002 4.55992 0.24 4.40025C0.399834 4.24075 0.59575 4.161 0.82775 4.161H17.4713C17.7049 4.161 17.9023 4.24183 18.0632 4.4035C18.2244 4.56517 18.305 4.76325 18.305 4.99775C18.305 5.23225 18.2244 5.42833 18.0632 5.586C17.9023 5.7435 17.7049 5.82225 17.4713 5.82225H0.82775ZM0.82775 1.6615C0.59575 1.6615 0.399834 1.58108 0.24 1.42025C0.0800002 1.25925 0 1.06208 0 0.828749C0 0.595416 0.0800002 0.398999 0.24 0.239499C0.399834 0.0798322 0.59575 0 0.82775 0H17.4713C17.7049 0 17.9023 0.0808321 18.0632 0.242499C18.2244 0.404165 18.305 0.602333 18.305 0.837C18.305 1.0715 18.2244 1.2675 18.0632 1.425C17.9023 1.58267 17.7049 1.6615 17.4713 1.6615H0.82775Z" fill="#304B52"/>
</svg>
