<svg width="13" height="13" viewBox="0 0 13 13" fill="none" xmlns="http://www.w3.org/2000/svg">
<path d="M0.85175 12.287C0.60725 12.287 0.404167 12.2062 0.2425 12.0445C0.0808336 11.883 0 11.6799 0 11.4353V0.85175C0 0.607083 0.0808336 0.404 0.2425 0.2425C0.404167 0.0808336 0.60725 0 0.85175 0C1.09625 0 1.29933 0.0808336 1.461 0.2425C1.62267 0.404 1.7035 0.607083 1.7035 0.85175V11.4353C1.7035 11.6799 1.62267 11.883 1.461 12.0445C1.29933 12.2062 1.09625 12.287 0.85175 12.287ZM7.72025 6.2185L11.8985 10.3968C12.0685 10.5667 12.1493 10.7657 12.141 10.9935C12.1327 11.2213 12.0435 11.4202 11.8735 11.5903C11.7035 11.7603 11.5004 11.8453 11.2643 11.8453C11.0281 11.8453 10.825 11.7603 10.655 11.5903L5.886 6.82125C5.79467 6.72992 5.72833 6.63458 5.687 6.53525C5.64567 6.43608 5.625 6.3305 5.625 6.2185C5.625 6.1065 5.64567 6.00092 5.687 5.90175C5.72833 5.80242 5.79467 5.70708 5.886 5.61575L10.68 0.82175C10.85 0.65175 11.0531 0.56675 11.2893 0.56675C11.5254 0.56675 11.7285 0.65175 11.8985 0.82175C12.0685 0.99175 12.1535 1.19483 12.1535 1.431C12.1535 1.66717 12.0685 1.87025 11.8985 2.04025L7.72025 6.2185Z" fill="#304B52"/>
</svg>
