<svg width="341" height="254" viewBox="0 0 341 254" fill="none" xmlns="http://www.w3.org/2000/svg">
<path d="M7.01644e-09 222.545C-1.21392e-06 221.453 -1.20076e-06 220.361 0.146596 219.071C2.0631 214.081 3.83301 209.289 5.69247 204.393C6.60537 202.163 7.42871 200.037 8.35232 197.817C9.6122 194.956 10.7718 192.188 12.0309 189.349C12.1897 189.045 12.2491 188.813 12.3218 188.56C12.3352 188.539 12.3447 188.49 12.4519 188.389C12.8365 187.575 13.1137 186.861 13.4759 186.065C13.567 185.903 13.573 185.824 13.6511 185.684C13.7232 185.623 13.7223 185.434 13.791 185.35C13.8595 185.192 13.8594 185.12 13.9579 184.984C14.3047 184.284 14.5529 183.648 14.912 182.881C15.2694 182.165 15.516 181.579 15.8589 180.906C16.9057 178.834 17.8563 176.847 18.9151 174.775C20.3148 172.185 21.6064 169.681 23.016 167.109C24.4715 164.676 25.8089 162.312 27.2393 159.858C28.442 157.798 29.5517 155.827 30.7946 153.815C31.3059 153.273 31.684 152.772 32.1643 152.197C33.8825 149.864 35.4985 147.603 37.2197 145.29C37.5239 144.907 37.7231 144.577 38.0495 144.188C39.8592 142.108 41.5417 140.088 43.3459 138.016C44.1751 137.182 44.8825 136.399 45.7191 135.571C47.5504 133.809 49.2524 132.093 51.0917 130.372C51.9397 129.851 52.6504 129.333 53.5015 128.788C58.0496 125.51 62.9654 123.456 68.5676 122.6C71.0689 122.641 73.3819 122.654 75.8299 122.743C80.9595 123.615 85.4869 125.663 89.9946 128.075C91.3245 128.934 92.5818 129.679 93.9134 130.543C95.4634 131.694 96.9391 132.726 98.4827 133.871C100.721 135.599 102.891 137.215 105.028 138.972C105.388 139.467 105.78 139.82 106.223 140.295C106.863 140.969 107.424 141.556 108.047 142.067C109.657 143.387 111.414 144.554 112.893 146.003C115.014 148.083 116.941 150.359 119.001 152.672C123.153 156.782 127.254 160.771 131.39 164.876C131.63 165.109 131.837 165.227 132.043 165.344C132.081 165.13 132.119 164.915 132.192 164.515C132.184 160.278 132.14 156.227 132.147 151.992C132.164 149.508 132.131 147.207 132.153 144.726C132.469 142.355 131.463 139.914 133.641 138.036C134.653 137.113 135.537 136.235 136.551 135.308C138.186 133.749 139.69 132.241 141.315 130.672C142.446 129.568 143.456 128.524 144.595 127.437C146.009 126.04 147.254 124.646 148.588 123.342C151.451 120.544 154.36 117.793 157.334 115.014C157.531 114.943 157.575 114.848 157.671 114.666C158.136 114.215 158.481 113.82 158.804 113.419C158.781 113.413 158.795 113.457 158.923 113.409C160.699 111.721 162.347 110.081 164.119 108.393C165.241 107.315 166.24 106.286 167.379 105.205C169.681 103.518 171.907 103.733 174.217 105.043C175.323 106.151 176.378 107.135 177.479 108.246C181.359 112.086 185.194 115.799 189.095 119.635C190.524 121.046 191.886 122.333 193.302 123.739C194.395 124.822 195.433 125.786 196.523 126.878C197.615 127.978 198.656 128.951 199.759 130.052C201.175 131.449 202.529 132.717 203.919 134.1C204.206 134.406 204.457 134.597 204.761 134.913C204.86 135.086 204.903 135.14 204.956 135.181C208.165 137.634 210.281 140.599 209.511 145.047C209.501 147.662 209.545 150.123 209.545 152.768C209.533 155.256 209.566 157.559 209.541 160.016C209.517 162.629 209.55 165.089 209.536 167.732C209.521 169.813 209.552 171.71 209.528 173.701C209.115 174.244 208.757 174.693 208.289 175.087C207.692 175.068 207.205 175.105 206.552 175.091C205.694 175.08 205.003 175.121 204.127 175.106C201.621 175.091 199.298 175.132 196.799 175.114C195.39 175.094 194.158 175.134 192.782 175.112C191.503 175.088 190.366 175.125 189.049 175.109C187.235 174.979 185.599 174.902 183.985 174.636C183.967 171.607 183.928 168.767 183.935 165.779C183.952 165.325 183.921 165.019 183.939 164.532C183.949 162.72 183.91 161.09 183.92 159.276C183.924 154.366 183.879 149.64 183.81 144.766C183.592 144.561 183.399 144.455 183.206 144.455C175.069 144.445 166.931 144.44 158.794 144.461C158.469 144.462 158.144 144.733 157.74 145.037C157.721 154.257 157.781 163.318 157.777 172.52C157.577 173.486 157.441 174.309 157.132 175.09C155.102 175.087 153.244 175.127 151.205 175.107C148.985 175.084 146.947 175.119 144.805 175.101C144.33 175.097 143.959 175.146 143.588 175.195C143.8 175.379 144.013 175.562 144.312 175.857C146.453 177.218 148.507 178.467 150.646 179.827C155.972 182.41 161.214 184.883 166.563 187.452C169.017 188.351 171.365 189.154 173.795 190.038C174.656 190.29 175.433 190.459 176.319 190.733C178.111 191.191 179.794 191.544 181.598 191.994C184.01 192.447 186.301 192.803 188.638 193.253C188.75 193.375 188.815 193.402 188.879 193.574C187.961 194.67 187.213 195.956 186.097 196.51C182.195 198.444 178.166 200.125 174.02 201.877C172.752 202.088 171.649 202.324 170.439 202.522C170.128 202.575 169.923 202.666 169.54 202.736C168.535 202.833 167.709 202.951 166.782 203.02C166.476 203.046 166.271 203.121 165.891 203.176C161.889 203.293 158.063 203.431 154.15 203.506C153.714 203.468 153.365 203.492 152.861 203.463C143.943 202.524 135.516 200.389 127.527 196.509C128.741 197.949 130.03 199.107 131.418 200.131C135.926 203.455 140.546 206.592 146.216 208.083C148.013 208.539 149.704 208.885 151.551 209.298C154.854 209.34 158.001 209.317 161.268 209.342C161.715 209.312 162.042 209.235 162.539 209.182C164.101 208.959 165.493 208.71 167.054 208.49C169.803 207.889 172.383 207.259 175.124 206.638C176.06 206.381 176.834 206.115 177.761 205.868C178.566 205.626 179.217 205.365 180.023 205.115C188.356 201.633 196.534 198.14 204.865 194.648C207.225 193.715 209.433 192.782 211.795 191.849C213.356 191.338 214.763 190.827 216.326 190.309C217.441 189.994 218.402 189.686 219.523 189.387C222.449 188.771 225.214 188.146 228.152 187.523C229.68 187.313 231.036 187.101 232.578 186.923C235.893 186.947 239.021 186.937 242.303 186.986C244.797 187.42 247.137 187.795 249.599 188.256C253.703 189.645 257.914 190.553 261 194.409C256.743 195.704 253.028 196.835 249.148 197.957C246.575 198.747 244.167 199.545 241.604 200.346C236.664 202.217 231.877 204.086 226.94 205.961C224.431 207.106 222.071 208.244 219.557 209.411C218.156 210.146 216.91 210.851 215.513 211.566C214.222 212.166 213.082 212.756 211.79 213.371C208.488 215.303 205.315 217.176 202.191 219.128C198.371 221.515 194.592 223.969 190.657 226.437C189.603 227.167 188.686 227.854 187.64 228.568C181.305 232.376 175.101 236.156 168.752 239.959C166.668 240.902 164.728 241.823 162.637 242.737C161.368 243.19 160.25 243.652 158.964 244.139C155.929 244.935 153.061 245.703 150.086 246.429C149.766 246.465 149.555 246.543 149.221 246.599C148.778 246.644 148.456 246.713 147.999 246.736C147.682 246.741 147.502 246.792 147.188 246.814C146.877 246.82 146.7 246.853 146.351 246.839C145.469 246.864 144.761 246.936 143.918 246.967C143.604 246.97 143.426 247.012 143.075 246.997C141.936 246.897 140.967 246.856 139.907 246.749C139.595 246.707 139.374 246.732 138.992 246.687C138.133 246.553 137.436 246.489 136.612 246.339C133.995 245.494 131.505 244.734 128.914 243.878C123.609 240.52 118.405 237.259 113.159 233.908C113.027 233.715 112.911 233.66 112.705 233.55C110.686 231.94 108.733 230.437 106.722 228.808C105.735 227.974 104.808 227.264 103.819 226.43C102.162 225.04 100.567 223.775 98.9129 222.394C98.6383 222.14 98.4213 222.002 98.1318 221.759C96.5899 220.563 95.1205 219.473 93.5929 218.267C92.8935 217.725 92.2524 217.297 91.5378 216.753C89.3341 215.219 87.2037 213.802 85.0288 212.271C84.6312 211.97 84.2783 211.781 83.8515 211.474C81.3644 209.937 78.9512 208.519 76.4525 206.996C74.7317 206.018 73.0964 205.144 71.3662 204.156C70.7381 203.79 70.2049 203.54 69.5937 203.185C66.5698 201.782 63.624 200.484 60.5741 199.105C58.3065 198.438 56.143 197.85 53.8032 197.196C52.1672 196.97 50.7075 196.811 49.1801 196.588C48.8786 196.552 48.6447 196.578 48.2614 196.547C47.1373 196.501 46.1627 196.512 45.026 196.458C42.668 196.691 40.472 196.989 38.1033 197.283C35.3231 198.13 32.7157 198.98 29.9552 199.833C24.7186 202.943 19.6352 206.048 14.4246 209.197C13.4458 209.996 12.5941 210.752 11.6133 211.558C10.0488 212.94 8.61341 214.272 7.05591 215.653C5.96408 216.741 4.99442 217.779 3.90769 218.889C2.95065 219.931 2.14281 220.931 1.25348 221.854C0.937628 222.181 0.423574 222.32 7.01644e-09 222.545Z" fill="white"/>
<path d="M341 28.5314C341 30.5781 341 32.6248 340.853 34.8788C339.082 39.4486 337.457 43.811 335.743 48.2864C334.61 51.0164 333.566 53.6334 332.439 56.362C332.14 57.0814 331.925 57.689 331.602 58.3881C330.76 60.1824 330.026 61.8852 329.215 63.7106C327.99 66.3244 326.842 68.8156 325.609 71.401C323.103 76.3291 320.68 81.1629 318.155 86.0927C317.266 87.6095 316.481 89.0303 315.578 90.5153C315.143 91.2147 314.825 91.8499 314.394 92.5622C310.612 97.9034 306.942 103.167 303.153 108.485C302.672 109.013 302.31 109.487 301.826 110.027C300.006 111.929 298.308 113.765 296.484 115.65C295.793 116.266 295.228 116.832 294.535 117.444C291.762 119.482 289.118 121.475 286.322 123.467C283.842 124.383 281.514 125.299 279.013 126.207C276.401 126.486 273.962 126.774 271.374 127C269.001 126.621 266.777 126.304 264.443 125.893C258.774 124.245 253.939 121.238 249.057 118.072C248.099 117.349 247.211 116.74 246.268 116.004C244.639 114.686 243.065 113.494 241.417 112.193C239.715 110.731 238.086 109.378 236.416 107.904C235.818 107.323 235.261 106.863 234.631 106.276C232.696 104.436 230.832 102.724 228.913 100.884C228.039 100.009 227.221 99.26 226.36 98.3849C224.218 96.4474 222.109 94.6488 220.032 92.8134C219.667 92.4911 219.491 91.9579 219.136 91.6192C217.106 89.6826 215.048 87.7754 212.961 85.7338C212.512 85.3303 212.103 85.051 211.698 84.6313C206.178 78.6724 199.714 74.1418 192.596 70.4369C192.576 70.3967 192.487 70.3791 192.412 70.2707C192.023 70.0277 191.708 69.8931 191.297 69.6587C190.45 69.2088 189.7 68.8587 188.861 68.4C186.125 67.1272 183.478 65.963 180.744 64.683C178.97 63.922 177.284 63.2767 175.497 62.5363C174.773 62.2609 174.15 62.0806 173.441 61.7819C170.839 60.9295 168.323 60.1956 165.683 59.373C163.197 58.8188 160.835 58.3532 158.337 57.8069C156.9 57.277 155.6 56.8279 154.393 56.2916C156.636 54.6052 158.635 52.7225 160.969 51.4651C165.99 48.7604 171.622 48.0942 177.331 47.2655C178.342 47.1794 179.188 47.0604 180.223 46.9686C183.125 46.9428 185.839 46.8898 188.718 46.8843C189.452 46.9265 190.021 46.9212 190.724 46.9964C191.581 47.1218 192.306 47.1666 193.188 47.2642C200.9 48.1823 208.105 50.2252 214.997 53.7143C214.835 53.0777 214.615 52.4544 214.175 52.1431C210.54 49.5694 206.971 46.874 203.168 44.5721C199.607 42.4167 195.57 41.4575 191.252 41.1493C190.797 41.1117 190.488 41.1294 190.028 41.0857C189.449 41.0298 189.022 41.0352 188.444 40.9762C185.545 41.0723 182.796 41.2328 179.91 41.3494C177.74 41.6893 175.708 42.0731 173.486 42.4532C170.751 43.1502 168.205 43.8509 165.498 44.5593C162.911 45.4668 160.486 46.3668 157.91 47.2571C155.285 48.3412 152.813 49.4351 150.189 50.5271C145.256 52.6907 140.476 54.8561 135.54 57.0217C132.911 57.968 130.437 58.9141 127.804 59.859C123.149 60.971 118.653 62.0843 113.987 63.1709C111.077 63.3665 108.339 63.5886 105.458 63.7455C104.466 63.6931 103.616 63.7058 102.639 63.6647C102.333 63.6282 102.154 63.6454 101.818 63.6018C100.544 63.4151 99.4257 63.2892 98.1806 63.0991C97.5924 62.9593 97.1307 62.8837 96.5434 62.724C94.608 62.1386 92.7981 61.6373 90.8756 61.0496C90.0872 60.6547 89.3375 60.4479 88.7497 60.0184C87.0997 58.8124 85.5165 57.5146 84 56.1268C86.1223 55.2736 88.1516 54.5467 90.3392 53.8238C93.2507 52.9046 96.0039 51.9813 98.9014 51.0474C99.6405 50.7853 100.235 50.5338 100.99 50.2917C102.203 49.9146 103.257 49.5283 104.435 49.1401C104.939 48.9865 105.319 48.8349 105.855 48.6631C108.456 47.6424 110.901 46.6419 113.495 45.6401C122.195 41.3082 130.764 37.0153 139.278 32.6142C140.92 31.7653 142.344 30.4924 144.015 29.3982C145.428 28.5628 146.693 27.7444 148.095 26.8981C149.341 26.066 150.451 25.2618 151.7 24.435C153.541 23.1774 155.243 21.9424 157.089 20.6662C160.22 18.6425 163.208 16.6601 166.325 14.6623C166.794 14.3938 167.134 14.1406 167.602 13.8677C168.165 13.5617 168.599 13.2753 169.159 12.9895C169.612 12.7444 169.939 12.4987 170.41 12.2254C174.116 10.4442 177.677 8.69059 181.395 6.9287C184.018 6.10117 186.485 5.28193 189.115 4.47846C191.614 4.05235 193.95 3.61046 196.455 3.19827C197.178 3.13256 197.734 3.03716 198.465 3C200.039 3.05581 201.439 3.05337 202.958 3.11155C203.254 3.15901 203.429 3.14586 203.743 3.19311C205.797 3.57669 207.714 3.89986 209.715 4.33227C210.256 4.48757 210.712 4.53364 211.268 4.69128C213.772 5.82781 216.176 6.85279 218.653 7.99144C221.311 9.83607 224.007 11.4225 226.455 13.3285C231.311 17.1089 236.031 21.0655 240.878 25.0708C241.761 25.8042 242.573 26.416 243.45 27.1439C245.258 28.6091 247.003 29.9582 248.826 31.4201C250.451 32.6179 251.996 33.703 253.612 34.8977C254.478 35.5373 255.272 36.0673 256.145 36.7117C261.289 39.9551 266.356 43.0839 271.51 46.3169C276.727 48.5472 281.858 50.6734 287.107 52.8754C289.576 53.286 291.927 53.6208 294.453 54.0253C297.07 53.9261 299.512 53.7572 302.111 53.6108C304.631 52.9622 306.995 52.291 309.518 51.6063C311.458 50.7223 313.238 49.8518 315.162 48.9712C315.878 48.6788 316.45 48.3966 317.167 48.1026C320.67 45.8056 324.027 43.5205 327.512 41.2041C329.371 39.6491 331.101 38.1254 332.961 36.5686C333.969 35.6352 334.848 34.7349 335.849 33.7762C337.276 32.2089 338.581 30.6999 340.009 29.114C340.422 28.8685 340.711 28.7 341 28.5314Z" fill="white"/>
<path d="M153.206 18.7342C152.818 19.0168 152.506 19.1784 152.116 19.4528C149.432 21.2111 146.825 22.8567 144.036 24.6782C143.521 25.128 143.188 25.4018 142.856 25.6755C140.064 27.4549 137.272 29.2343 134.257 31.1509C132.263 32.3619 130.492 33.4355 128.722 34.5092C126.023 35.7845 123.325 37.0599 120.367 38.4406C118.278 39.2785 116.449 40.011 114.62 40.7435C113.5 41.0735 112.38 41.4035 111.127 41.8159C110.118 42.0912 109.243 42.284 108.253 42.5743C105.796 43.0259 103.455 43.3799 100.845 43.7552C100.363 43.851 100.15 43.9255 99.9366 44C98.1413 43.9289 96.346 43.8578 94.2706 43.7234C93.252 43.5668 92.5135 43.4734 91.6527 43.3045C89.0377 42.0227 86.5449 40.8165 84.0077 39.4617C83.9846 38.9258 84.0058 38.5387 84.1778 38.1336C85.8847 37.3418 87.4408 36.568 89.1472 35.7843C90.1434 35.3152 90.9892 34.8561 91.993 34.3943C94.4761 33.3405 96.8012 32.2893 99.277 31.2311C101.919 30.0812 104.41 28.9386 107.05 27.7866C109.718 26.5748 112.238 25.3722 114.916 24.1741C117.523 23.1423 119.972 22.1059 122.42 21.0699C129.953 17.8831 137.485 14.6965 145.183 11.5086C150.418 9.63691 155.487 7.76628 160.557 5.89564C165.377 4.48919 170.197 3.08275 175.14 1.58158C177.224 1.06573 179.185 0.64461 181.375 0.157704C181.679 0.0612802 181.754 0.0306402 181.83 0C181.978 0.0141542 182.126 0.028308 182.38 0.000762677C182.917 0.051023 183.348 0.142982 184 0.282125C183.637 0.594838 183.388 0.809392 182.896 1.15734C181.678 1.89076 180.704 2.49079 179.73 3.09082C172.25 7.41792 164.764 11.7366 157.292 16.0798C155.927 16.8729 154.617 17.7662 153.206 18.7342Z" fill="#D0B68A"/>
<path d="M137.271 3.49053C137.658 3.47114 138.045 3.45176 138.566 3.36469C140.194 3.00964 141.689 2.72226 143.314 2.34893C145.379 1.95887 147.313 1.65476 149.356 1.28294C153.067 0.824423 156.664 0.349378 160.273 0.0739976C162.484 -0.0946993 164.713 0.0428144 167 0.307149C165.316 0.893359 163.631 1.47957 161.671 2.13445C160.063 2.77409 158.731 3.34507 157.398 3.91605C156.998 4.01634 156.598 4.11664 155.972 4.31789C155.251 4.64911 154.757 4.87939 154.118 5.11889C153.365 5.43637 152.756 5.74464 152.004 6.05027C149.04 7.30446 146.22 8.56128 143.257 9.81995C136.813 12.5366 130.799 16.2722 123.765 17C120.615 16.7126 117.645 16.4558 114.57 16.1103C112.977 15.0871 111.491 14.1526 110 13.0561C110.401 12.445 110.743 11.8288 111.226 11.5793C112.475 10.935 113.786 10.4527 115.228 9.90315C117.42 9.21561 119.457 8.53064 121.494 7.84568C126.364 6.54439 131.235 5.24311 136.34 3.89071C136.806 3.72324 137.038 3.60688 137.271 3.49053Z" fill="#D0B68A"/>
<path d="M119.859 139.138C117.615 137.251 116.506 134.985 117.21 131.848C117.93 130.721 118.566 129.663 119.389 128.805C125.442 122.492 131.533 116.219 137.715 109.705C137.938 109.371 138.058 109.266 138.304 109.134C142.886 104.44 147.342 99.7741 151.926 95.0412C152.425 94.5449 152.796 94.1156 153.286 93.6505C155.407 91.4925 157.409 89.3703 159.487 87.1405C159.837 86.7021 160.111 86.3713 160.509 85.993C162.503 84.2796 164.374 82.6137 166.393 80.9277C168.893 79.6663 171.306 79.8061 173.842 80.6606C175.976 82.3893 178.012 84.014 180.07 85.7377C180.247 85.9527 180.403 86.0688 180.612 86.3181C183.106 88.9076 185.544 91.364 188.005 93.8928C188.027 93.9652 188.168 94.0021 188.222 94.134C190.148 96.2174 192.021 98.1688 194.108 100.344C194.108 97.7655 194.108 95.6547 194.155 93.3949C193.989 91.2392 194.887 89.8027 196.518 88.6426C197.865 88.603 199.032 88.5456 200.199 88.5408C204.227 88.5245 205.076 89.3128 205.514 93.6337C205.507 96.1804 205.545 98.5631 205.527 101.133C205.511 103.698 205.551 106.075 205.536 108.626C205.071 111.122 205.926 112.749 207.585 114.363C212.071 118.728 216.373 123.303 220.712 127.833C221.776 128.944 222.702 130.201 223.695 131.574C224.43 134.223 223.802 136.371 222.185 138.37C220.573 138.955 219.091 139.489 217.488 139.958C216.763 139.746 216.159 139.6 215.556 139.454C213.445 137.405 211.335 135.356 209.101 133.248C208.514 132.658 208.05 132.127 207.48 131.558C205.993 130.046 204.614 128.572 203.106 127.04C201.891 125.792 200.803 124.601 199.543 123.232C198.119 121.8 196.868 120.546 195.617 119.292C194.751 118.325 193.885 117.358 192.896 116.35C189.02 112.329 185.268 108.349 181.391 104.325C179.193 102.086 177.14 99.8704 175.042 97.7029C171.521 94.0641 169.846 94.0633 166.235 97.749C165.459 98.574 164.735 99.2762 163.952 100.104C162.74 101.36 161.589 102.491 160.389 103.75C158.775 105.446 157.21 107.015 155.596 108.714C154.655 109.712 153.763 110.58 152.831 111.578C149.103 115.499 145.415 119.289 141.677 123.211C139.933 125.049 138.24 126.755 136.363 128.624C135.635 129.384 135.09 129.981 134.546 130.579C132.897 132.251 131.248 133.923 129.423 135.771C128.401 136.88 127.556 137.814 126.71 138.747C125.329 139.154 123.948 139.56 122.421 140C121.512 139.74 120.751 139.445 119.859 139.138Z" fill="#D0B68A"/>
<path d="M240.448 211.316C243.448 211.22 246.448 211.124 249.635 211C252.172 211.465 254.523 211.957 257.129 212.546C258.551 213.48 259.717 214.317 260.877 215.268C260.925 215.436 260.98 215.492 261 215.686C259.439 216.586 257.912 217.348 256.246 218.105C254.268 218.852 252.428 219.604 250.445 220.372C249.713 220.647 249.124 220.905 248.386 221.198C246.164 222.084 244.089 222.935 241.858 223.806C239.319 224.809 236.936 225.791 234.412 226.793C233.45 227.182 232.63 227.554 231.647 227.93C229.96 228.56 228.438 229.186 226.75 229.826C224.798 230.577 223.01 231.314 221.073 232.053C220.109 232.408 219.294 232.762 218.336 233.128C211.307 235.726 204.42 238.31 197.376 240.89C195.703 241.435 194.189 241.984 192.521 242.531C188.611 243.719 184.855 244.907 180.944 246.1C180.122 246.328 179.456 246.551 178.633 246.77C177.635 246.978 176.79 247.183 175.951 247.406C172.617 248.293 169.285 249.185 165.963 250.083C165.974 250.09 165.95 250.072 165.79 250.012C163.753 250.301 161.877 250.65 160 251C160.111 250.72 160.135 250.295 160.345 250.183C162.19 249.202 164.069 248.277 166.032 247.239C168.256 246.071 170.386 245.001 172.596 243.824C178.101 240.768 183.527 237.819 189.026 234.768C192.321 232.809 195.541 230.952 198.841 228.996C200.887 227.755 202.855 226.612 205.021 225.341C205.804 224.826 206.389 224.439 207.114 224.038C208.146 223.483 209.037 222.941 209.929 222.399C210.942 221.898 211.954 221.396 213.058 220.794C215.279 219.708 217.41 218.722 219.635 217.628C221.793 216.715 223.856 215.91 226.056 215.022C226.435 214.878 226.678 214.816 226.977 214.679C229.696 213.887 232.359 213.171 235.291 212.352C237.189 211.938 238.819 211.627 240.448 211.316Z" fill="#D0B68A"/>
<path d="M179.894 251.411C180.514 251.192 181.006 251.06 181.598 250.84C185.782 249.198 189.866 247.644 194.056 245.993C195.947 245.184 197.732 244.473 199.607 243.643C203.229 242.046 206.773 240.599 210.292 239.085C215.317 236.924 220.521 236.684 226.127 237.284C226.873 237.357 227.302 237.388 227.857 237.507C229.289 237.969 230.596 238.344 231.983 238.839C232.458 239.166 232.851 239.374 233.279 239.736C233.579 240.583 233.846 241.275 234 241.973C233.7 242.103 233.511 242.226 233.166 242.362C230.312 243.292 227.615 244.21 224.756 245.103C222.712 245.672 220.829 246.265 218.78 246.845C216.166 247.565 213.718 248.299 211.142 249.058C210.847 249.126 210.679 249.169 210.351 249.186C209.477 249.248 208.762 249.336 207.92 249.444C207.629 249.518 207.466 249.572 207.149 249.596C206.01 249.966 205.024 250.366 203.945 250.779C203.852 250.793 203.691 250.899 203.512 250.861C201.85 250.995 200.368 251.168 198.723 251.307C198.239 251.35 197.917 251.427 197.453 251.467C197.036 251.511 196.761 251.591 196.308 251.651C193.708 252.031 191.285 252.432 188.699 252.807C187.03 253.004 185.523 253.228 183.833 253.427C180.433 253.601 177.216 253.801 174 254C174.098 253.701 174.138 253.188 174.302 253.135C176.113 252.548 177.942 252.033 179.894 251.411Z" fill="#D0B68A"/>
</svg>
